<?xml version="1.0" encoding="UTF-8"?>
<!--Generator: Apple Native CoreSVG 148-->
<!DOCTYPE svg
PUBLIC "-//W3C//DTD SVG 1.1//EN"
       "http://www.w3.org/Graphics/SVG/1.1/DTD/svg11.dtd">
<svg version="1.1" xmlns="http://www.w3.org/2000/svg" xmlns:xlink="http://www.w3.org/1999/xlink" width="3300" height="2200">
 <!--glyph: "uni100060.medium", point size: 100.000000, font version: "Version 16.0d11e1", template writer version: "8"-->
 <g id="Notes">
  <rect height="2200" id="artboard" style="fill:white;opacity:1" width="3300" x="0" y="0"/>
  <line id="" style="fill:none;stroke:black;opacity:1;stroke-width:0.5;" x1="263" x2="3036" y1="292" y2="292"/>
  <text style="stroke:none;fill:black;font-family:-apple-system,&quot;SF Pro Display&quot;,&quot;SF Pro Text&quot;,Helvetica,sans-serif;font-weight:bold;" transform="matrix(1 0 0 1 263 322)">Weight/Scale Variations</text>
  <text style="stroke:none;fill:black;font-family:-apple-system,&quot;SF Pro Display&quot;,&quot;SF Pro Text&quot;,Helvetica,sans-serif;text-anchor:middle;" transform="matrix(1 0 0 1 559.711 322)">Ultralight</text>
  <text style="stroke:none;fill:black;font-family:-apple-system,&quot;SF Pro Display&quot;,&quot;SF Pro Text&quot;,Helvetica,sans-serif;text-anchor:middle;" transform="matrix(1 0 0 1 856.422 322)">Thin</text>
  <text style="stroke:none;fill:black;font-family:-apple-system,&quot;SF Pro Display&quot;,&quot;SF Pro Text&quot;,Helvetica,sans-serif;text-anchor:middle;" transform="matrix(1 0 0 1 1153.13 322)">Light</text>
  <text style="stroke:none;fill:black;font-family:-apple-system,&quot;SF Pro Display&quot;,&quot;SF Pro Text&quot;,Helvetica,sans-serif;text-anchor:middle;" transform="matrix(1 0 0 1 1449.84 322)">Regular</text>
  <text style="stroke:none;fill:black;font-family:-apple-system,&quot;SF Pro Display&quot;,&quot;SF Pro Text&quot;,Helvetica,sans-serif;text-anchor:middle;" transform="matrix(1 0 0 1 1746.56 322)">Medium</text>
  <text style="stroke:none;fill:black;font-family:-apple-system,&quot;SF Pro Display&quot;,&quot;SF Pro Text&quot;,Helvetica,sans-serif;text-anchor:middle;" transform="matrix(1 0 0 1 2043.27 322)">Semibold</text>
  <text style="stroke:none;fill:black;font-family:-apple-system,&quot;SF Pro Display&quot;,&quot;SF Pro Text&quot;,Helvetica,sans-serif;text-anchor:middle;" transform="matrix(1 0 0 1 2339.98 322)">Bold</text>
  <text style="stroke:none;fill:black;font-family:-apple-system,&quot;SF Pro Display&quot;,&quot;SF Pro Text&quot;,Helvetica,sans-serif;text-anchor:middle;" transform="matrix(1 0 0 1 2636.69 322)">Heavy</text>
  <text style="stroke:none;fill:black;font-family:-apple-system,&quot;SF Pro Display&quot;,&quot;SF Pro Text&quot;,Helvetica,sans-serif;text-anchor:middle;" transform="matrix(1 0 0 1 2933.4 322)">Black</text>
  <line id="" style="fill:none;stroke:black;opacity:1;stroke-width:0.5;" x1="263" x2="3036" y1="1903" y2="1903"/>
  <g id="" transform="matrix(1 0 0 1 263 1933)">
   <path d="M 9.24805 0.830078 C 13.5547 0.830078 17.1387 -2.74414 17.1387 -7.05078 C 17.1387 -11.3574 13.5449 -14.9316 9.23828 -14.9316 C 4.94141 -14.9316 1.36719 -11.3574 1.36719 -7.05078 C 1.36719 -2.74414 4.95117 0.830078 9.24805 0.830078 Z M 9.24805 -0.654297 C 5.70312 -0.654297 2.87109 -3.49609 2.87109 -7.05078 C 2.87109 -10.6055 5.69336 -13.4473 9.23828 -13.4473 C 12.793 -13.4473 15.6348 -10.6055 15.6445 -7.05078 C 15.6543 -3.49609 12.8027 -0.654297 9.24805 -0.654297 Z M 9.22852 -3.62305 C 9.69727 -3.62305 9.9707 -3.93555 9.9707 -4.45312 L 9.9707 -6.31836 L 12.002 -6.31836 C 12.5 -6.31836 12.832 -6.57227 12.832 -7.04102 C 12.832 -7.51953 12.5195 -7.7832 12.002 -7.7832 L 9.9707 -7.7832 L 9.9707 -9.81445 C 9.9707 -10.332 9.69727 -10.6543 9.22852 -10.6543 C 8.75977 -10.6543 8.50586 -10.3125 8.50586 -9.81445 L 8.50586 -7.7832 L 6.49414 -7.7832 C 5.97656 -7.7832 5.64453 -7.51953 5.64453 -7.04102 C 5.64453 -6.57227 5.99609 -6.31836 6.49414 -6.31836 L 8.50586 -6.31836 L 8.50586 -4.45312 C 8.50586 -3.95508 8.75977 -3.62305 9.22852 -3.62305 Z"/>
  </g>
  <g id="" transform="matrix(1 0 0 1 281.506 1933)">
   <path d="M 11.709 2.91016 C 17.1582 2.91016 21.6699 -1.61133 21.6699 -7.05078 C 21.6699 -12.5 17.1484 -17.0117 11.6992 -17.0117 C 6.25977 -17.0117 1.74805 -12.5 1.74805 -7.05078 C 1.74805 -1.61133 6.26953 2.91016 11.709 2.91016 Z M 11.709 1.25 C 7.09961 1.25 3.41797 -2.44141 3.41797 -7.05078 C 3.41797 -11.6602 7.08984 -15.3516 11.6992 -15.3516 C 16.3086 -15.3516 20 -11.6602 20.0098 -7.05078 C 20.0195 -2.44141 16.3184 1.25 11.709 1.25 Z M 11.6797 -2.66602 C 12.207 -2.66602 12.5098 -3.01758 12.5098 -3.59375 L 12.5098 -6.23047 L 15.3223 -6.23047 C 15.8691 -6.23047 16.25 -6.51367 16.25 -7.03125 C 16.25 -7.55859 15.8887 -7.86133 15.3223 -7.86133 L 12.5098 -7.86133 L 12.5098 -10.6836 C 12.5098 -11.25 12.207 -11.6113 11.6797 -11.6113 C 11.1621 -11.6113 10.8789 -11.2305 10.8789 -10.6836 L 10.8789 -7.86133 L 8.07617 -7.86133 C 7.50977 -7.86133 7.13867 -7.55859 7.13867 -7.03125 C 7.13867 -6.51367 7.5293 -6.23047 8.07617 -6.23047 L 10.8789 -6.23047 L 10.8789 -3.59375 C 10.8789 -3.03711 11.1621 -2.66602 11.6797 -2.66602 Z"/>
  </g>
  <g id="" transform="matrix(1 0 0 1 304.924 1933)">
   <path d="M 14.9707 5.66406 C 21.9336 5.66406 27.6953 -0.0976562 27.6953 -7.05078 C 27.6953 -14.0137 21.9238 -19.7754 14.9609 -19.7754 C 8.00781 -19.7754 2.25586 -14.0137 2.25586 -7.05078 C 2.25586 -0.0976562 8.01758 5.66406 14.9707 5.66406 Z M 14.9707 3.84766 C 8.93555 3.84766 4.08203 -1.01562 4.08203 -7.05078 C 4.08203 -13.0957 8.92578 -17.9492 14.9609 -17.9492 C 21.0059 -17.9492 25.8594 -13.0957 25.8691 -7.05078 C 25.8789 -1.01562 21.0156 3.84766 14.9707 3.84766 Z M 14.9414 -1.38672 C 15.5176 -1.38672 15.8594 -1.77734 15.8594 -2.38281 L 15.8594 -6.13281 L 19.7754 -6.13281 C 20.3711 -6.13281 20.7812 -6.46484 20.7812 -7.02148 C 20.7812 -7.59766 20.3906 -7.93945 19.7754 -7.93945 L 15.8594 -7.93945 L 15.8594 -11.8652 C 15.8594 -12.4805 15.5176 -12.8711 14.9414 -12.8711 C 14.375 -12.8711 14.0527 -12.4609 14.0527 -11.8652 L 14.0527 -7.93945 L 10.1465 -7.93945 C 9.53125 -7.93945 9.13086 -7.59766 9.13086 -7.02148 C 9.13086 -6.46484 9.55078 -6.13281 10.1465 -6.13281 L 14.0527 -6.13281 L 14.0527 -2.38281 C 14.0527 -1.79688 14.375 -1.38672 14.9414 -1.38672 Z"/>
  </g>
  <text style="stroke:none;fill:black;font-family:-apple-system,&quot;SF Pro Display&quot;,&quot;SF Pro Text&quot;,Helvetica,sans-serif;font-weight:bold;" transform="matrix(1 0 0 1 263 1953)">Design Variations</text>
  <text style="stroke:none;fill:black;font-family:-apple-system,&quot;SF Pro Display&quot;,&quot;SF Pro Text&quot;,Helvetica,sans-serif;" transform="matrix(1 0 0 1 263 1971)">Symbols are supported in up to nine weights and three scales.</text>
  <text style="stroke:none;fill:black;font-family:-apple-system,&quot;SF Pro Display&quot;,&quot;SF Pro Text&quot;,Helvetica,sans-serif;" transform="matrix(1 0 0 1 263 1989)">For optimal layout with text and other symbols, vertically align</text>
  <text style="stroke:none;fill:black;font-family:-apple-system,&quot;SF Pro Display&quot;,&quot;SF Pro Text&quot;,Helvetica,sans-serif;" transform="matrix(1 0 0 1 263 2007)">symbols with the adjacent text.</text>
  <line id="" style="fill:none;stroke:#00AEEF;stroke-width:0.5;opacity:1.0;" x1="776" x2="776" y1="1919" y2="1933"/>
  <g id="" transform="matrix(1 0 0 1 776 1933)">
   <path d="M 3.31055 0.126953 C 3.82812 0.126953 4.08203 -0.0683594 4.26758 -0.605469 L 5.52734 -4.0625 L 11.2891 -4.0625 L 12.5488 -0.605469 C 12.7344 -0.0683594 12.9883 0.126953 13.4961 0.126953 C 14.0137 0.126953 14.3457 -0.185547 14.3457 -0.673828 C 14.3457 -0.839844 14.3164 -0.986328 14.2383 -1.20117 L 9.6582 -13.3887 C 9.43359 -13.9941 9.0332 -14.2871 8.4082 -14.2871 C 7.80273 -14.2871 7.39258 -13.9941 7.17773 -13.3984 L 2.59766 -1.19141 C 2.51953 -0.976562 2.49023 -0.830078 2.49023 -0.664062 C 2.49023 -0.175781 2.80273 0.126953 3.31055 0.126953 Z M 6.00586 -5.53711 L 8.37891 -12.1094 L 8.42773 -12.1094 L 10.8008 -5.53711 Z"/>
  </g>
  <line id="" style="fill:none;stroke:#00AEEF;stroke-width:0.5;opacity:1.0;" x1="792.836" x2="792.836" y1="1919" y2="1933"/>
  <text style="stroke:none;fill:black;font-family:-apple-system,&quot;SF Pro Display&quot;,&quot;SF Pro Text&quot;,Helvetica,sans-serif;font-weight:bold;" transform="matrix(1 0 0 1 776 1953)">Margins</text>
  <text style="stroke:none;fill:black;font-family:-apple-system,&quot;SF Pro Display&quot;,&quot;SF Pro Text&quot;,Helvetica,sans-serif;" transform="matrix(1 0 0 1 776 1971)">Leading and trailing margins on the left and right side of each symbol</text>
  <text style="stroke:none;fill:black;font-family:-apple-system,&quot;SF Pro Display&quot;,&quot;SF Pro Text&quot;,Helvetica,sans-serif;" transform="matrix(1 0 0 1 776 1989)">can be adjusted by modifying the x-location of the margin guidelines.</text>
  <text style="stroke:none;fill:black;font-family:-apple-system,&quot;SF Pro Display&quot;,&quot;SF Pro Text&quot;,Helvetica,sans-serif;" transform="matrix(1 0 0 1 776 2007)">Modifications are automatically applied proportionally to all</text>
  <text style="stroke:none;fill:black;font-family:-apple-system,&quot;SF Pro Display&quot;,&quot;SF Pro Text&quot;,Helvetica,sans-serif;" transform="matrix(1 0 0 1 776 2025)">scales and weights.</text>
  <g id="" transform="matrix(1 0 0 1 1289 1933)">
   <path d="M 2.8418 1.86523 L 4.54102 3.57422 C 5.40039 4.44336 6.38672 4.38477 7.31445 3.35938 L 17.4902 -7.85156 C 17.7539 -7.76367 18.0273 -7.7832 18.3398 -7.8418 L 19.4043 -8.03711 L 20.0684 -7.36328 L 20.0293 -6.80664 C 19.9902 -6.30859 20.1172 -5.92773 20.6055 -5.44922 L 21.3672 -4.70703 C 21.8457 -4.22852 22.4609 -4.19922 22.9297 -4.66797 L 25.8398 -7.58789 C 26.3086 -8.05664 26.2891 -8.65234 25.8105 -9.13086 L 25.0391 -9.89258 C 24.5605 -10.3711 24.1895 -10.5273 23.7109 -10.4883 L 23.1348 -10.4395 L 22.4902 -11.0742 L 22.7344 -12.1973 C 22.8613 -12.7637 22.7051 -13.2031 22.1191 -13.7891 L 19.9219 -15.9766 C 16.582 -19.2969 12.1484 -19.2188 9.25781 -16.3281 C 8.83789 -15.918 8.80859 -15.3418 9.04297 -14.9512 C 9.27734 -14.5898 9.73633 -14.3555 10.3809 -14.5215 C 11.8457 -14.8633 13.3691 -14.9219 14.7949 -13.9844 L 14.209 -12.5293 C 14.0137 -12.0508 13.9844 -11.6504 14.1113 -11.2891 L 3.04688 -0.898438 C 2.06055 0.0195312 1.98242 0.996094 2.8418 1.86523 Z M 10.752 -15.957 C 13.1836 -17.7344 16.4746 -17.4316 18.7012 -15.2051 L 21.1328 -12.793 C 21.3672 -12.5586 21.4062 -12.373 21.3379 -12.0312 L 21.0156 -10.5469 L 22.5195 -9.0625 L 23.5059 -9.12109 C 23.7598 -9.13086 23.8379 -9.11133 24.0332 -8.91602 L 24.6094 -8.33984 L 22.168 -5.89844 L 21.5918 -6.47461 C 21.3965 -6.66992 21.3672 -6.74805 21.377 -7.01172 L 21.4453 -7.98828 L 19.9512 -9.47266 L 18.4277 -9.21875 C 18.1055 -9.15039 17.959 -9.17969 17.7148 -9.41406 L 15.7129 -11.416 C 15.459 -11.6504 15.4297 -11.8164 15.5859 -12.1875 L 16.4648 -14.2773 C 14.9023 -15.7324 12.8711 -16.3574 10.8398 -15.7617 C 10.6836 -15.7227 10.625 -15.8496 10.752 -15.957 Z M 5.27344 2.30469 L 4.10156 1.14258 C 3.63281 0.683594 3.74023 0.341797 4.14062 -0.0195312 L 14.9512 -10.1953 L 16.416 -8.71094 L 6.42578 2.27539 C 6.07422 2.67578 5.74219 2.77344 5.27344 2.30469 Z"/>
  </g>
  <text style="stroke:none;fill:black;font-family:-apple-system,&quot;SF Pro Display&quot;,&quot;SF Pro Text&quot;,Helvetica,sans-serif;font-weight:bold;" transform="matrix(1 0 0 1 1289 1953)">Exporting</text>
  <text style="stroke:none;fill:black;font-family:-apple-system,&quot;SF Pro Display&quot;,&quot;SF Pro Text&quot;,Helvetica,sans-serif;" transform="matrix(1 0 0 1 1289 1971)">Symbols should be outlined when exporting to ensure the</text>
  <text style="stroke:none;fill:black;font-family:-apple-system,&quot;SF Pro Display&quot;,&quot;SF Pro Text&quot;,Helvetica,sans-serif;" transform="matrix(1 0 0 1 1289 1989)">design is preserved when submitting to Xcode.</text>
  <text id="template-version" style="stroke:none;fill:black;font-family:-apple-system,&quot;SF Pro Display&quot;,&quot;SF Pro Text&quot;,Helvetica,sans-serif;text-anchor:end;" transform="matrix(1 0 0 1 3036 1933)">Template v.2.0</text>
  <text style="stroke:none;fill:black;font-family:-apple-system,&quot;SF Pro Display&quot;,&quot;SF Pro Text&quot;,Helvetica,sans-serif;text-anchor:end;" transform="matrix(1 0 0 1 3036 1951)">Requires Xcode 12 or greater</text>
  <text style="stroke:none;fill:black;font-family:-apple-system,&quot;SF Pro Display&quot;,&quot;SF Pro Text&quot;,Helvetica,sans-serif;text-anchor:end;" transform="matrix(1 0 0 1 3036 1969)">Generated from xmark.circle</text>
  <text style="stroke:none;fill:black;font-family:-apple-system,&quot;SF Pro Display&quot;,&quot;SF Pro Text&quot;,Helvetica,sans-serif;text-anchor:end;" transform="matrix(1 0 0 1 3036 1987)">Typeset at 100 points</text>
  <text style="stroke:none;fill:black;font-family:-apple-system,&quot;SF Pro Display&quot;,&quot;SF Pro Text&quot;,Helvetica,sans-serif;" transform="matrix(1 0 0 1 263 726)">Small</text>
  <text style="stroke:none;fill:black;font-family:-apple-system,&quot;SF Pro Display&quot;,&quot;SF Pro Text&quot;,Helvetica,sans-serif;" transform="matrix(1 0 0 1 263 1156)">Medium</text>
  <text style="stroke:none;fill:black;font-family:-apple-system,&quot;SF Pro Display&quot;,&quot;SF Pro Text&quot;,Helvetica,sans-serif;" transform="matrix(1 0 0 1 263 1586)">Large</text>
 </g>
 <g id="Guides">
  <g id="H-reference" style="fill:#27AAE1;stroke:none;" transform="matrix(1 0 0 1 339 696)">
   <path d="M 0.976562 0 L 3.66211 0 L 12.9883 -24.4629 L 45.7031 -24.4629 L 55.0781 0 L 57.7148 0 L 30.6152 -70.459 L 28.125 -70.459 Z M 29.2969 -67.1387 L 29.3945 -67.1387 L 44.873 -26.709 L 13.8672 -26.709 Z"/>
  </g>
  <line id="Baseline-S" style="fill:none;stroke:#27AAE1;opacity:1;stroke-width:0.5;" x1="263" x2="3036" y1="696" y2="696"/>
  <line id="Capline-S" style="fill:none;stroke:#27AAE1;opacity:1;stroke-width:0.5;" x1="263" x2="3036" y1="625.541" y2="625.541"/>
  <g id="H-reference" style="fill:#27AAE1;stroke:none;" transform="matrix(1 0 0 1 339 1126)">
   <path d="M 0.976562 0 L 3.66211 0 L 12.9883 -24.4629 L 45.7031 -24.4629 L 55.0781 0 L 57.7148 0 L 30.6152 -70.459 L 28.125 -70.459 Z M 29.2969 -67.1387 L 29.3945 -67.1387 L 44.873 -26.709 L 13.8672 -26.709 Z"/>
  </g>
  <line id="Baseline-M" style="fill:none;stroke:#27AAE1;opacity:1;stroke-width:0.5;" x1="263" x2="3036" y1="1126" y2="1126"/>
  <line id="Capline-M" style="fill:none;stroke:#27AAE1;opacity:1;stroke-width:0.5;" x1="263" x2="3036" y1="1055.54" y2="1055.54"/>
  <g id="H-reference" style="fill:#27AAE1;stroke:none;" transform="matrix(1 0 0 1 339 1556)">
   <path d="M 0.976562 0 L 3.66211 0 L 12.9883 -24.4629 L 45.7031 -24.4629 L 55.0781 0 L 57.7148 0 L 30.6152 -70.459 L 28.125 -70.459 Z M 29.2969 -67.1387 L 29.3945 -67.1387 L 44.873 -26.709 L 13.8672 -26.709 Z"/>
  </g>
  <line id="Baseline-L" style="fill:none;stroke:#27AAE1;opacity:1;stroke-width:0.5;" x1="263" x2="3036" y1="1556" y2="1556"/>
  <line id="Capline-L" style="fill:none;stroke:#27AAE1;opacity:1;stroke-width:0.5;" x1="263" x2="3036" y1="1485.54" y2="1485.54"/>
  <line id="left-margin" style="fill:none;stroke:#00AEEF;stroke-width:0.5;opacity:1.0;" x1="1391.3" x2="1391.3" y1="1030.79" y2="1150.12"/>
  <line id="right-margin" style="fill:none;stroke:#00AEEF;stroke-width:0.5;opacity:1.0;" x1="1508.39" x2="1508.39" y1="1030.79" y2="1150.12"/>
 </g>
 <g id="Symbols">
  <g id="Black-L" transform="matrix(1 0 0 1 2854.05 1556)">
   <path d="M 79.3457 32.8613 C 116.748 32.8613 147.412 2.19727 147.412 -35.2051 C 147.412 -72.6074 116.748 -103.271 79.2969 -103.271 C 41.8945 -103.271 11.2793 -72.6074 11.2793 -35.2051 C 11.2793 2.19727 41.9434 32.8613 79.3457 32.8613 Z M 79.3457 12.4023 C 52.9785 12.4023 31.7383 -8.83789 31.7383 -35.2051 C 31.7383 -61.5723 52.9297 -82.8125 79.2969 -82.8125 C 105.664 -82.8125 126.953 -61.5723 126.953 -35.2051 C 127.002 -8.83789 105.713 12.4023 79.3457 12.4023 Z M 61.2793 -9.27734 C 63.7207 -9.27734 65.625 -10.0098 67.2363 -11.6211 L 79.2969 -23.6816 L 91.5039 -11.6211 C 93.0664 -10.0586 94.9707 -9.27734 97.4121 -9.27734 C 101.953 -9.27734 105.42 -12.7441 105.42 -17.334 C 105.42 -19.3848 104.541 -21.3379 103.027 -22.8516 L 90.7715 -35.1074 L 103.027 -47.4609 C 104.59 -49.0234 105.42 -50.9277 105.42 -52.9297 C 105.42 -57.5195 101.953 -60.9863 97.4609 -60.9863 C 95.0195 -60.9863 93.1641 -60.2539 91.5527 -58.6426 L 79.2969 -46.5332 L 67.1875 -58.6426 C 65.5762 -60.2051 63.7207 -60.9375 61.2793 -60.9375 C 56.7383 -60.9375 53.2715 -57.5195 53.2715 -52.9297 C 53.2715 -50.9277 54.1504 -48.9258 55.7129 -47.4121 L 67.9688 -35.1074 L 55.7129 -22.8516 C 54.1504 -21.3379 53.2715 -19.3359 53.2715 -17.334 C 53.2715 -12.7441 56.7383 -9.27734 61.2793 -9.27734 Z"/>
  </g>
  <g id="Heavy-L" transform="matrix(1 0 0 1 2558.39 1556)">
   <path d="M 78.2715 31.7871 C 115.088 31.7871 145.312 1.5625 145.312 -35.2051 C 145.312 -72.0215 115.039 -102.246 78.2715 -102.246 C 41.4551 -102.246 11.2793 -72.0215 11.2793 -35.2051 C 11.2793 1.5625 41.5039 31.7871 78.2715 31.7871 Z M 78.2715 14.0137 C 51.0254 14.0137 29.0527 -7.95898 29.0527 -35.2051 C 29.0527 -62.5 50.9766 -84.4727 78.2715 -84.4727 C 105.518 -84.4727 127.49 -62.5 127.539 -35.2051 C 127.539 -7.95898 105.566 14.0137 78.2715 14.0137 Z M 59.3262 -9.17969 C 61.4746 -9.17969 63.2324 -9.86328 64.5996 -11.3281 L 78.2715 -24.9512 L 91.9434 -11.3281 C 93.3594 -9.91211 95.0684 -9.17969 97.2656 -9.17969 C 101.27 -9.17969 104.395 -12.3047 104.395 -16.4062 C 104.395 -18.2129 103.613 -19.9707 102.246 -21.3379 L 88.4766 -35.1074 L 102.246 -48.9746 C 103.662 -50.3906 104.395 -52.0996 104.395 -53.9062 C 104.395 -57.959 101.318 -61.084 97.2656 -61.084 C 95.166 -61.084 93.5059 -60.4004 92.041 -58.9355 L 78.2715 -45.2637 L 64.5508 -58.9355 C 63.1348 -60.3516 61.4746 -61.0352 59.3262 -61.0352 C 55.3223 -61.0352 52.1973 -57.959 52.1973 -53.8574 C 52.1973 -52.0508 52.9785 -50.293 54.3457 -48.9258 L 68.1152 -35.1074 L 54.3457 -21.3379 C 52.9785 -19.9707 52.1973 -18.2129 52.1973 -16.4062 C 52.1973 -12.3047 55.3223 -9.17969 59.3262 -9.17969 Z"/>
  </g>
  <g id="Bold-L" transform="matrix(1 0 0 1 2262.88 1556)">
   <path d="M 77.0996 30.5664 C 113.232 30.5664 142.92 0.878906 142.92 -35.2539 C 142.92 -71.3379 113.184 -101.074 77.0508 -101.074 C 40.9668 -101.074 11.2793 -71.3379 11.2793 -35.2539 C 11.2793 0.878906 41.0156 30.5664 77.0996 30.5664 Z M 77.0996 15.8203 C 48.8281 15.8203 26.0742 -6.98242 26.0742 -35.2539 C 26.0742 -63.5254 48.7793 -86.2793 77.0508 -86.2793 C 105.371 -86.2793 128.125 -63.5254 128.174 -35.2539 C 128.174 -6.98242 105.371 15.8203 77.0996 15.8203 Z M 57.1777 -9.08203 C 58.9844 -9.08203 60.498 -9.7168 61.7188 -10.9863 L 77.0508 -26.3184 L 92.4805 -10.9863 C 93.7012 -9.76562 95.166 -9.08203 97.0215 -9.08203 C 100.488 -9.08203 103.223 -11.8164 103.223 -15.332 C 103.223 -16.9922 102.539 -18.457 101.367 -19.6289 L 85.8887 -35.1074 L 101.367 -50.6836 C 102.637 -51.9043 103.271 -53.3691 103.271 -54.9805 C 103.271 -58.4473 100.537 -61.1328 97.0703 -61.1328 C 95.3125 -61.1328 93.8965 -60.5957 92.5781 -59.2773 L 77.0508 -43.8477 L 61.6211 -59.2773 C 60.4004 -60.498 58.9844 -61.084 57.1777 -61.084 C 53.6621 -61.084 50.9766 -58.4473 50.9766 -54.9316 C 50.9766 -53.3203 51.6602 -51.8066 52.832 -50.6348 L 68.3105 -35.1074 L 52.832 -19.6289 C 51.6602 -18.457 50.9766 -16.9434 50.9766 -15.332 C 50.9766 -11.8164 53.6621 -9.08203 57.1777 -9.08203 Z"/>
  </g>
  <g id="Semibold-L" transform="matrix(1 0 0 1 1966.97 1556)">
   <path d="M 76.2695 29.7363 C 111.914 29.7363 141.309 0.390625 141.309 -35.2539 C 141.309 -70.8984 111.865 -100.244 76.2695 -100.244 C 40.625 -100.244 11.2793 -70.8984 11.2793 -35.2539 C 11.2793 0.390625 40.6738 29.7363 76.2695 29.7363 Z M 76.2695 17.041 C 47.3145 17.041 24.0234 -6.25 24.0234 -35.2539 C 24.0234 -64.209 47.2656 -87.5488 76.2695 -87.5488 C 105.225 -87.5488 128.564 -64.209 128.613 -35.2539 C 128.662 -6.25 105.273 17.041 76.2695 17.041 Z M 55.6641 -9.0332 C 57.2754 -9.0332 58.5938 -9.61914 59.7168 -10.7422 L 76.2207 -27.2949 L 92.8711 -10.7422 C 93.9453 -9.66797 95.2637 -9.0332 96.875 -9.0332 C 100 -9.0332 102.393 -11.4746 102.393 -14.5996 C 102.393 -16.1133 101.807 -17.3828 100.732 -18.457 L 84.1309 -35.1074 L 100.781 -51.8555 C 101.904 -52.9785 102.441 -54.248 102.441 -55.7129 C 102.441 -58.7891 100.049 -61.1816 96.9238 -61.1816 C 95.3613 -61.1816 94.1406 -60.6934 92.9688 -59.5215 L 76.2207 -42.8711 L 59.6191 -59.4727 C 58.5449 -60.5957 57.2754 -61.1328 55.6641 -61.1328 C 52.5391 -61.1328 50.1465 -58.7402 50.1465 -55.6641 C 50.1465 -54.1992 50.7324 -52.8809 51.8066 -51.8066 L 68.457 -35.1074 L 51.8066 -18.457 C 50.7324 -17.3828 50.1465 -16.0645 50.1465 -14.5996 C 50.1465 -11.4746 52.5391 -9.0332 55.6641 -9.0332 Z"/>
  </g>
  <g id="Medium-L" transform="matrix(1 0 0 1 1670.87 1556)">
   <path d="M 75.6836 29.1504 C 110.938 29.1504 140.088 0 140.088 -35.2539 C 140.088 -70.5078 110.889 -99.6582 75.6348 -99.6582 C 40.3809 -99.6582 11.2793 -70.5078 11.2793 -35.2539 C 11.2793 0 40.3809 29.1504 75.6836 29.1504 Z M 75.6836 18.0176 C 46.1426 18.0176 22.4609 -5.76172 22.4609 -35.2539 C 22.4609 -64.7461 46.1426 -88.5254 75.6348 -88.5254 C 105.127 -88.5254 128.906 -64.7461 128.906 -35.2539 C 128.955 -5.76172 105.176 18.0176 75.6836 18.0176 Z M 54.4922 -9.0332 C 55.957 -9.0332 57.1777 -9.52148 58.1543 -10.5469 L 75.6348 -28.0273 L 93.1152 -10.5469 C 94.0918 -9.57031 95.3125 -9.0332 96.7773 -9.0332 C 99.6094 -9.0332 101.807 -11.2305 101.807 -14.0137 C 101.807 -15.4297 101.27 -16.6016 100.293 -17.5781 L 82.7637 -35.1074 L 100.342 -52.7344 C 101.367 -53.8086 101.855 -54.9316 101.855 -56.25 C 101.855 -59.0332 99.6582 -61.2305 96.8262 -61.2305 C 95.459 -61.2305 94.3359 -60.791 93.2617 -59.7168 L 75.6348 -42.1387 L 58.1055 -59.668 C 57.0801 -60.6934 55.957 -61.1328 54.4922 -61.1328 C 51.709 -61.1328 49.5117 -59.0332 49.5117 -56.2012 C 49.5117 -54.8828 50.0488 -53.6621 51.0254 -52.6855 L 68.5547 -35.1074 L 51.0254 -17.5293 C 50.0488 -16.6016 49.5117 -15.3809 49.5117 -14.0137 C 49.5117 -11.2305 51.709 -9.0332 54.4922 -9.0332 Z"/>
  </g>
  <g id="Regular-L" transform="matrix(1 0 0 1 1374.97 1556)">
   <path d="M 74.8535 28.3203 C 109.668 28.3203 138.477 -0.488281 138.477 -35.2539 C 138.477 -70.0684 109.619 -98.877 74.8047 -98.877 C 40.0391 -98.877 11.2793 -70.0684 11.2793 -35.2539 C 11.2793 -0.488281 40.0879 28.3203 74.8535 28.3203 Z M 74.8535 19.2383 C 44.6777 19.2383 20.4102 -5.07812 20.4102 -35.2539 C 20.4102 -65.4785 44.6289 -89.7461 74.8047 -89.7461 C 105.029 -89.7461 129.297 -65.4785 129.346 -35.2539 C 129.395 -5.07812 105.078 19.2383 74.8535 19.2383 Z M 53.0273 -8.93555 C 54.248 -8.93555 55.3223 -9.42383 56.2012 -10.3027 L 74.8047 -29.0039 L 93.5059 -10.3027 C 94.3359 -9.47266 95.4102 -8.93555 96.6309 -8.93555 C 99.0723 -8.93555 101.025 -10.9375 101.025 -13.3301 C 101.025 -14.5508 100.537 -15.5762 99.6582 -16.4551 L 81.0059 -35.1074 L 99.707 -53.9062 C 100.635 -54.834 101.074 -55.7617 101.074 -56.9824 C 101.074 -59.375 99.1211 -61.2793 96.6797 -61.2793 C 95.5566 -61.2793 94.5801 -60.8887 93.6523 -59.9121 L 74.8047 -41.2109 L 56.1035 -59.8633 C 55.2246 -60.791 54.248 -61.1816 53.0273 -61.1816 C 50.5859 -61.1816 48.6816 -59.3262 48.6816 -56.9336 C 48.6816 -55.7129 49.1211 -54.6875 50 -53.8574 L 68.7012 -35.1074 L 50 -16.4062 C 49.1211 -15.5762 48.6816 -14.502 48.6816 -13.3301 C 48.6816 -10.9375 50.5859 -8.93555 53.0273 -8.93555 Z"/>
  </g>
  <g id="Light-L" transform="matrix(1 0 0 1 1079.18 1556)">
   <path d="M 73.9258 27.3926 C 108.301 27.3926 136.621 -0.927734 136.621 -35.2539 C 136.621 -69.6289 108.252 -97.9492 73.9258 -97.9492 C 39.5508 -97.9492 11.2793 -69.6289 11.2793 -35.2539 C 11.2793 -0.927734 39.5996 27.3926 73.9258 27.3926 Z M 73.9258 20.5078 C 43.1152 20.5078 18.2129 -4.44336 18.2129 -35.2539 C 18.2129 -66.1133 43.0664 -91.0156 73.9258 -91.0156 C 104.736 -91.0156 129.688 -66.1133 129.736 -35.2539 C 129.736 -4.44336 104.785 20.5078 73.9258 20.5078 Z M 51.709 -9.47266 C 52.7344 -9.47266 53.5156 -9.81445 54.248 -10.5957 L 73.9258 -30.2734 L 93.6035 -10.5957 C 94.3359 -9.86328 95.166 -9.47266 96.1426 -9.47266 C 98.0469 -9.47266 99.5605 -10.9863 99.5605 -12.8418 C 99.5605 -13.8184 99.2188 -14.5996 98.4863 -15.332 L 78.7598 -35.1074 L 98.5352 -54.9316 C 99.2676 -55.6641 99.6094 -56.3965 99.6094 -57.373 C 99.6094 -59.2285 98.0957 -60.6934 96.1914 -60.6934 C 95.2637 -60.6934 94.4824 -60.4004 93.7012 -59.5703 L 73.9258 -39.8438 L 54.1992 -59.5703 C 53.418 -60.3516 52.7344 -60.6445 51.709 -60.6445 C 49.8047 -60.6445 48.291 -59.2285 48.291 -57.3242 C 48.291 -56.3965 48.6328 -55.5664 49.3652 -54.8828 L 69.0918 -35.1074 L 49.3652 -15.2832 C 48.6328 -14.5996 48.291 -13.8184 48.291 -12.8418 C 48.291 -10.9863 49.8047 -9.47266 51.709 -9.47266 Z"/>
  </g>
  <g id="Thin-L" transform="matrix(1 0 0 1 783.693 1556)">
   <path d="M 72.7051 26.1719 C 106.494 26.1719 134.18 -1.51367 134.18 -35.2539 C 134.18 -69.043 106.494 -96.7285 72.7051 -96.7285 C 38.9648 -96.7285 11.2793 -69.043 11.2793 -35.2539 C 11.2793 -1.51367 38.9648 26.1719 72.7051 26.1719 Z M 72.7051 22.168 C 41.0156 22.168 15.2832 -3.56445 15.2832 -35.2539 C 15.2832 -66.9922 41.0156 -92.7246 72.7051 -92.7246 C 104.395 -92.7246 130.176 -66.9922 130.176 -35.2539 C 130.176 -3.56445 104.443 22.168 72.7051 22.168 Z M 49.9512 -10.1562 C 50.6836 -10.1562 51.0742 -10.3516 51.6602 -10.9863 L 72.7051 -31.9824 L 93.75 -10.9863 C 94.3359 -10.3516 94.8242 -10.1562 95.5078 -10.1562 C 96.7285 -10.1562 97.6562 -11.0352 97.6562 -12.207 C 97.6562 -12.8418 97.4609 -13.3301 96.9238 -13.8672 L 75.7324 -35.0586 L 96.9238 -56.25 C 97.4609 -56.7871 97.6562 -57.2266 97.6562 -57.9102 C 97.6562 -59.0332 96.7285 -59.9121 95.5078 -59.9121 C 94.873 -59.9121 94.3848 -59.7168 93.75 -59.1309 L 72.7051 -38.0859 L 51.6602 -59.1309 C 51.0742 -59.7168 50.6836 -59.9121 49.9512 -59.9121 C 48.7305 -59.9121 47.7539 -59.0332 47.7539 -57.9102 C 47.7539 -57.2266 47.9492 -56.7383 48.4863 -56.2012 L 69.6777 -35.0586 L 48.4863 -13.8672 C 47.9492 -13.3301 47.7539 -12.8418 47.7539 -12.207 C 47.7539 -11.0352 48.7305 -10.1562 49.9512 -10.1562 Z"/>
  </g>
  <g id="Ultralight-L" transform="matrix(1 0 0 1 487.616 1556)">
   <path d="M 72.1191 25.5371 C 105.566 25.5371 132.91 -1.80664 132.91 -35.2539 C 132.91 -68.75 105.566 -96.0938 72.1191 -96.0938 C 38.623 -96.0938 11.2793 -68.75 11.2793 -35.2539 C 11.2793 -1.80664 38.623 25.5371 72.1191 25.5371 Z M 72.1191 23.0469 C 39.9414 23.0469 13.7695 -3.125 13.7695 -35.2539 C 13.7695 -67.4316 39.9414 -93.6035 72.1191 -93.6035 C 104.248 -93.6035 130.42 -67.4316 130.42 -35.2539 C 130.42 -3.125 104.248 23.0469 72.1191 23.0469 Z M 49.0234 -10.498 C 49.6094 -10.498 49.8535 -10.6445 50.3906 -11.1328 L 72.1191 -32.8613 L 93.7988 -11.1328 C 94.3359 -10.6445 94.6777 -10.498 95.166 -10.498 C 96.0449 -10.498 96.6797 -11.084 96.6797 -11.8652 C 96.6797 -12.3535 96.582 -12.6953 96.1426 -13.1348 L 74.2188 -35.0098 L 96.1426 -56.8848 C 96.5332 -57.3242 96.6797 -57.666 96.6797 -58.1543 C 96.6797 -58.9355 95.9961 -59.5215 95.166 -59.5215 C 94.6289 -59.5215 94.3359 -59.375 93.7988 -58.8867 L 72.1191 -37.1582 L 50.3906 -58.8867 C 49.8535 -59.4238 49.6094 -59.5215 49.0234 -59.5215 C 48.1445 -59.5215 47.5098 -58.9355 47.5098 -58.1543 C 47.5098 -57.666 47.6074 -57.373 48.0469 -56.9336 L 69.9707 -35.0098 L 48.0469 -13.1348 C 47.6074 -12.6953 47.5098 -12.3535 47.5098 -11.8652 C 47.5098 -11.084 48.1445 -10.498 49.0234 -10.498 Z"/>
  </g>
  <g id="Black-M" transform="matrix(1 0 0 1 2870.97 1126)">
   <path d="M 62.4023 18.457 C 91.9922 18.457 116.113 -5.61523 116.113 -35.2051 C 116.113 -64.7949 91.9922 -88.8672 62.4023 -88.8672 C 32.8125 -88.8672 8.74023 -64.7949 8.74023 -35.2051 C 8.74023 -5.61523 32.8125 18.457 62.4023 18.457 Z M 62.4023 0.195312 C 42.8711 0.195312 27.002 -15.625 27.002 -35.2051 C 27.002 -54.7363 42.8711 -70.6055 62.4023 -70.6055 C 81.9824 -70.6055 97.8027 -54.7363 97.8027 -35.2051 C 97.8027 -15.625 81.9824 0.195312 62.4023 0.195312 Z M 49.4141 -15.4785 C 51.5625 -15.4785 53.1738 -16.1133 54.5898 -17.4805 L 62.4023 -25.293 L 70.3125 -17.4805 C 71.7285 -16.1133 73.3398 -15.4785 75.4883 -15.4785 C 79.3945 -15.4785 82.3242 -18.4082 82.3242 -22.3633 C 82.3242 -24.0723 81.5918 -25.7812 80.2734 -27.0996 L 72.2656 -35.1562 L 80.2734 -43.1641 C 81.5918 -44.4824 82.3242 -46.1914 82.3242 -47.9004 C 82.3242 -51.8555 79.3945 -54.7852 75.4883 -54.7852 C 73.3398 -54.7852 71.7285 -54.1504 70.3125 -52.7832 L 62.4023 -44.9219 L 54.5898 -52.7832 C 53.1738 -54.1504 51.5625 -54.7852 49.4141 -54.7852 C 45.5078 -54.7852 42.5781 -51.8555 42.5781 -47.9004 C 42.5781 -46.1914 43.3105 -44.4824 44.6289 -43.1641 L 52.6855 -35.1562 L 44.6289 -27.0996 C 43.3105 -25.7812 42.5781 -24.0723 42.5781 -22.3633 C 42.5781 -18.4082 45.5078 -15.4785 49.4141 -15.4785 Z"/>
  </g>
  <g id="Heavy-M" transform="matrix(1 0 0 1 2575.19 1126)">
   <path d="M 61.5234 17.5293 C 90.5273 17.5293 114.258 -6.20117 114.258 -35.2051 C 114.258 -64.2578 90.5273 -87.9883 61.4746 -87.9883 C 32.4707 -87.9883 8.74023 -64.2578 8.74023 -35.2051 C 8.74023 -6.20117 32.4707 17.5293 61.5234 17.5293 Z M 61.5234 1.61133 C 41.1133 1.61133 24.6582 -14.8438 24.6582 -35.2051 C 24.6582 -55.6152 41.1133 -72.0703 61.4746 -72.0703 C 81.8848 -72.0703 98.3398 -55.6152 98.3398 -35.2051 C 98.3398 -14.8438 81.8848 1.61133 61.5234 1.61133 Z M 47.6074 -15.2832 C 49.5117 -15.2832 50.9766 -15.8203 52.2461 -17.0898 L 61.4746 -26.3184 L 70.8008 -17.0898 C 72.0703 -15.8691 73.5352 -15.2832 75.4395 -15.2832 C 78.9062 -15.2832 81.5918 -17.9199 81.5918 -21.4844 C 81.5918 -23.0469 80.9082 -24.5117 79.7363 -25.7324 L 70.3613 -35.1562 L 79.7363 -44.5801 C 80.9082 -45.8008 81.5918 -47.2656 81.5918 -48.8281 C 81.5918 -52.3438 78.9062 -55.0293 75.4395 -55.0293 C 73.5352 -55.0293 72.1191 -54.4434 70.8496 -53.2227 L 61.4746 -43.9453 L 52.1973 -53.2227 C 50.9766 -54.4434 49.5117 -55.0293 47.6074 -55.0293 C 44.1406 -55.0293 41.4551 -52.3438 41.4551 -48.8281 C 41.4551 -47.2656 42.1387 -45.752 43.3594 -44.5801 L 52.7344 -35.1562 L 43.3594 -25.7324 C 42.1387 -24.5117 41.4551 -22.998 41.4551 -21.4844 C 41.4551 -17.9199 44.1406 -15.2832 47.6074 -15.2832 Z"/>
  </g>
  <g id="Bold-M" transform="matrix(1 0 0 1 2279.5 1126)">
   <path d="M 60.498 16.5039 C 88.8672 16.5039 112.207 -6.83594 112.207 -35.2051 C 112.207 -63.623 88.8672 -86.9629 60.4492 -86.9629 C 32.0312 -86.9629 8.74023 -63.623 8.74023 -35.2051 C 8.74023 -6.83594 32.0801 16.5039 60.498 16.5039 Z M 60.498 3.22266 C 39.1602 3.22266 22.0703 -13.916 22.0703 -35.2051 C 22.0703 -56.543 39.1602 -73.6816 60.4492 -73.6816 C 81.7383 -73.6816 98.9258 -56.543 98.9258 -35.2051 C 98.9746 -13.916 81.7871 3.22266 60.498 3.22266 Z M 45.6543 -15.0391 C 47.2656 -15.0391 48.5352 -15.5273 49.6094 -16.6016 L 60.4492 -27.4902 L 71.3867 -16.6016 C 72.4121 -15.5762 73.7305 -15.0391 75.3418 -15.0391 C 78.3691 -15.0391 80.7129 -17.3828 80.7129 -20.459 C 80.7129 -21.875 80.127 -23.1445 79.1016 -24.2188 L 68.1641 -35.1562 L 79.1016 -46.1426 C 80.1758 -47.2168 80.7617 -48.4863 80.7617 -49.9023 C 80.7617 -52.9297 78.418 -55.2734 75.3418 -55.2734 C 73.7793 -55.2734 72.5586 -54.7852 71.4355 -53.6621 L 60.4492 -42.7734 L 49.5605 -53.6621 C 48.4863 -54.7363 47.2656 -55.2246 45.6543 -55.2246 C 42.5781 -55.2246 40.2344 -52.9297 40.2344 -49.8535 C 40.2344 -48.4863 40.8203 -47.168 41.8945 -46.1426 L 52.832 -35.1562 L 41.8945 -24.1699 C 40.8203 -23.1445 40.2344 -21.8262 40.2344 -20.459 C 40.2344 -17.3828 42.5781 -15.0391 45.6543 -15.0391 Z"/>
  </g>
  <g id="Semibold-M" transform="matrix(1 0 0 1 1983.5 1126)">
   <path d="M 59.7656 15.8203 C 87.7441 15.8203 110.791 -7.27539 110.791 -35.2539 C 110.791 -63.2324 87.6953 -86.2793 59.7656 -86.2793 C 31.7871 -86.2793 8.74023 -63.2324 8.74023 -35.2539 C 8.74023 -7.27539 31.7871 15.8203 59.7656 15.8203 Z M 59.7656 4.3457 C 37.8418 4.3457 20.2637 -13.3301 20.2637 -35.2539 C 20.2637 -57.1777 37.793 -74.8047 59.7656 -74.8047 C 81.6895 -74.8047 99.3164 -57.1777 99.3652 -35.2539 C 99.3652 -13.3301 81.6895 4.3457 59.7656 4.3457 Z M 44.2383 -14.8438 C 45.7031 -14.8438 46.875 -15.332 47.8027 -16.3086 L 59.7656 -28.2715 L 71.7285 -16.3086 C 72.6562 -15.3809 73.8281 -14.8438 75.293 -14.8438 C 78.0273 -14.8438 80.127 -16.9922 80.127 -19.7266 C 80.127 -21.0449 79.5898 -22.2168 78.6621 -23.1445 L 66.6504 -35.1562 L 78.7109 -47.2656 C 79.6875 -48.2422 80.1758 -49.3164 80.1758 -50.5859 C 80.1758 -53.3203 78.0273 -55.4688 75.3418 -55.4688 C 73.9258 -55.4688 72.8516 -55.0293 71.8262 -54.0039 L 59.7656 -41.9922 L 47.7539 -53.9551 C 46.8262 -54.9316 45.7031 -55.3711 44.2383 -55.3711 C 41.5527 -55.3711 39.4043 -53.3203 39.4043 -50.5859 C 39.4043 -49.3164 39.9414 -48.0957 40.8691 -47.2168 L 52.8809 -35.1562 L 40.8691 -23.0957 C 39.9414 -22.2168 39.4043 -20.9961 39.4043 -19.7266 C 39.4043 -16.9922 41.5527 -14.8438 44.2383 -14.8438 Z"/>
  </g>
  <g id="Medium-M" transform="matrix(1 0 0 1 1687.3 1126)">
   <path d="M 59.2285 15.2344 C 86.9141 15.2344 109.766 -7.61719 109.766 -35.2539 C 109.766 -62.8906 86.8652 -85.7422 59.1797 -85.7422 C 31.543 -85.7422 8.74023 -62.8906 8.74023 -35.2539 C 8.74023 -7.61719 31.5918 15.2344 59.2285 15.2344 Z M 59.2285 5.17578 C 36.8164 5.17578 18.8965 -12.8418 18.8965 -35.2539 C 18.8965 -57.666 36.8164 -75.6348 59.1797 -75.6348 C 81.5918 -75.6348 99.6094 -57.666 99.6582 -35.2539 C 99.707 -12.8418 81.6406 5.17578 59.2285 5.17578 Z M 43.2129 -14.7461 C 44.4824 -14.7461 45.6055 -15.1855 46.4355 -16.0645 L 59.2285 -28.8574 L 72.0215 -16.0645 C 72.8516 -15.2344 73.9258 -14.7461 75.2441 -14.7461 C 77.7344 -14.7461 79.6875 -16.748 79.6875 -19.1895 C 79.6875 -20.459 79.1992 -21.4844 78.3691 -22.3633 L 65.5273 -35.1562 L 78.3691 -48.0469 C 79.2969 -48.9746 79.7363 -49.9512 79.7363 -51.1719 C 79.7363 -53.6621 77.7832 -55.6152 75.293 -55.6152 C 74.0723 -55.6152 73.0469 -55.1758 72.1191 -54.248 L 59.2285 -41.4062 L 46.3379 -54.1992 C 45.5078 -55.0781 44.4824 -55.5176 43.2129 -55.5176 C 40.7227 -55.5176 38.7695 -53.6133 38.7695 -51.123 C 38.7695 -49.9512 39.2578 -48.8281 40.1367 -48.0469 L 52.9297 -35.1562 L 40.1367 -22.3145 C 39.2578 -21.4844 38.7695 -20.4102 38.7695 -19.1895 C 38.7695 -16.748 40.7227 -14.7461 43.2129 -14.7461 Z"/>
  </g>
  <g id="Regular-M" transform="matrix(1 0 0 1 1391.3 1126)">
   <path d="M 58.5449 14.5508 C 85.791 14.5508 108.35 -8.05664 108.35 -35.2539 C 108.35 -62.5 85.7422 -85.0586 58.4961 -85.0586 C 31.2988 -85.0586 8.74023 -62.5 8.74023 -35.2539 C 8.74023 -8.05664 31.3477 14.5508 58.5449 14.5508 Z M 58.5449 6.25 C 35.498 6.25 17.0898 -12.207 17.0898 -35.2539 C 17.0898 -58.3008 35.4492 -76.7578 58.4961 -76.7578 C 81.543 -76.7578 100 -58.3008 100.049 -35.2539 C 100.098 -12.207 81.5918 6.25 58.5449 6.25 Z M 41.8457 -14.5508 C 42.9688 -14.5508 43.9453 -14.9902 44.6777 -15.7715 L 58.4961 -29.6875 L 72.4121 -15.7715 C 73.1445 -15.0391 74.0723 -14.5508 75.1953 -14.5508 C 77.3438 -14.5508 79.1016 -16.3574 79.1016 -18.5059 C 79.1016 -19.6289 78.7109 -20.5566 77.9297 -21.2891 L 64.0625 -35.1562 L 77.9785 -49.1211 C 78.8086 -49.9512 79.1504 -50.7812 79.1504 -51.8555 C 79.1504 -54.0527 77.3926 -55.7617 75.2441 -55.7617 C 74.2188 -55.7617 73.3887 -55.4199 72.5586 -54.5898 L 58.4961 -40.625 L 44.5801 -54.541 C 43.8477 -55.3223 42.9688 -55.6641 41.8457 -55.6641 C 39.6973 -55.6641 37.9395 -54.0039 37.9395 -51.8066 C 37.9395 -50.7324 38.3789 -49.8047 39.1113 -49.0723 L 52.9785 -35.1562 L 39.1113 -21.2402 C 38.3789 -20.5566 37.9395 -19.5801 37.9395 -18.5059 C 37.9395 -16.3574 39.6973 -14.5508 41.8457 -14.5508 Z"/>
  </g>
  <g id="Light-M" transform="matrix(1 0 0 1 1095.42 1126)">
   <path d="M 57.7148 13.7207 C 84.5215 13.7207 106.689 -8.44727 106.689 -35.2539 C 106.689 -62.1094 84.5215 -84.2285 57.666 -84.2285 C 30.8594 -84.2285 8.74023 -62.1094 8.74023 -35.2539 C 8.74023 -8.44727 30.9082 13.7207 57.7148 13.7207 Z M 57.7148 7.37305 C 34.082 7.37305 15.0879 -11.6699 15.0879 -35.2539 C 15.0879 -58.8867 34.082 -77.9297 57.666 -77.9297 C 81.2988 -77.9297 100.342 -58.8867 100.391 -35.2539 C 100.391 -11.6699 81.3477 7.37305 57.7148 7.37305 Z M 40.6738 -15.0391 C 41.5527 -15.0391 42.2852 -15.332 42.9199 -16.0156 L 57.666 -30.8105 L 72.5098 -16.0156 C 73.1445 -15.3809 73.877 -15.0391 74.7559 -15.0391 C 76.4648 -15.0391 77.832 -16.4062 77.832 -18.0664 C 77.832 -18.9941 77.4902 -19.6777 76.8555 -20.3125 L 62.0117 -35.1562 L 76.9043 -50.0488 C 77.5879 -50.6836 77.832 -51.3672 77.832 -52.1973 C 77.832 -53.9062 76.4648 -55.2246 74.7559 -55.2246 C 73.9746 -55.2246 73.291 -54.9316 72.6074 -54.248 L 57.666 -39.4043 L 42.8711 -54.248 C 42.2363 -54.8828 41.5527 -55.1758 40.6738 -55.1758 C 38.9648 -55.1758 37.5977 -53.8574 37.5977 -52.1973 C 37.5977 -51.3184 37.8906 -50.5859 38.5254 -50 L 53.3691 -35.1562 L 38.5254 -20.2637 C 37.8906 -19.6777 37.5977 -18.9453 37.5977 -18.0664 C 37.5977 -16.4062 38.9648 -15.0391 40.6738 -15.0391 Z"/>
  </g>
  <g id="Thin-M" transform="matrix(1 0 0 1 799.806 1126)">
   <path d="M 56.6406 12.5977 C 82.9102 12.5977 104.492 -8.98438 104.492 -35.2539 C 104.492 -61.5723 82.9102 -83.1543 56.5918 -83.1543 C 30.3223 -83.1543 8.74023 -61.5723 8.74023 -35.2539 C 8.74023 -8.98438 30.3223 12.5977 56.6406 12.5977 Z M 56.6406 8.88672 C 32.2266 8.88672 12.4512 -10.8887 12.4512 -35.2539 C 12.4512 -59.6191 32.2266 -79.4434 56.5918 -79.4434 C 81.0059 -79.4434 100.781 -59.6191 100.781 -35.2539 C 100.781 -10.8887 81.0059 8.88672 56.6406 8.88672 Z M 39.1113 -15.6738 C 39.6973 -15.6738 40.1367 -15.8203 40.625 -16.3574 L 56.5918 -32.373 L 72.6074 -16.3574 C 73.1445 -15.8691 73.584 -15.6738 74.1699 -15.6738 C 75.2441 -15.6738 76.123 -16.4551 76.123 -17.5293 C 76.123 -18.1152 75.9277 -18.5547 75.4883 -18.9941 L 59.375 -35.1074 L 75.4883 -51.2207 C 75.9277 -51.709 76.123 -52.0996 76.123 -52.6855 C 76.123 -53.7109 75.2441 -54.541 74.1699 -54.541 C 73.584 -54.541 73.1934 -54.3457 72.6562 -53.8574 L 56.5918 -37.8418 L 40.5762 -53.8086 C 40.0879 -54.3457 39.6973 -54.4922 39.1113 -54.4922 C 37.9883 -54.4922 37.1094 -53.7109 37.1094 -52.6855 C 37.1094 -52.0996 37.3047 -51.6602 37.793 -51.2207 L 53.8574 -35.1074 L 37.793 -18.9941 C 37.3047 -18.5547 37.1094 -18.0664 37.1094 -17.5293 C 37.1094 -16.4551 37.9883 -15.6738 39.1113 -15.6738 Z"/>
  </g>
  <g id="Ultralight-M" transform="matrix(1 0 0 1 503.656 1126)">
   <path d="M 56.0547 12.0605 C 82.0801 12.0605 103.369 -9.22852 103.369 -35.2539 C 103.369 -61.2793 82.0801 -82.5684 56.0547 -82.5684 C 30.0293 -82.5684 8.74023 -61.2793 8.74023 -35.2539 C 8.74023 -9.22852 30.0293 12.0605 56.0547 12.0605 Z M 56.0547 9.66797 C 31.2988 9.66797 11.1328 -10.498 11.1328 -35.2539 C 11.1328 -60.0586 31.2988 -80.1758 56.0547 -80.1758 C 80.8594 -80.1758 100.977 -60.0586 100.977 -35.2539 C 100.977 -10.498 80.8594 9.66797 56.0547 9.66797 Z M 38.2812 -15.9668 C 38.7695 -15.9668 39.0137 -16.0645 39.4531 -16.5039 L 56.0547 -33.1543 L 72.7051 -16.5039 C 73.1445 -16.0645 73.4375 -15.9668 73.8281 -15.9668 C 74.6094 -15.9668 75.2441 -16.5039 75.2441 -17.2363 C 75.2441 -17.627 75.0977 -17.9688 74.7559 -18.3105 L 58.0078 -35.0586 L 74.7559 -51.8066 C 75.0977 -52.1973 75.2441 -52.4902 75.2441 -52.9297 C 75.2441 -53.6621 74.6094 -54.1992 73.8281 -54.1992 C 73.4375 -54.1992 73.0957 -54.0527 72.7051 -53.6133 L 56.0547 -37.0117 L 39.4531 -53.6133 C 39.0137 -54.0527 38.7695 -54.1992 38.2812 -54.1992 C 37.5 -54.1992 36.9141 -53.6621 36.9141 -52.9297 C 36.9141 -52.4902 37.0117 -52.1973 37.4023 -51.8066 L 54.1504 -35.0586 L 37.4023 -18.3105 C 37.0117 -17.9688 36.9141 -17.627 36.9141 -17.2363 C 36.9141 -16.5039 37.5 -15.9668 38.2812 -15.9668 Z"/>
  </g>
  <g id="Black-S" transform="matrix(1 0 0 1 2884.57 696)">
   <path d="M 48.8281 6.78711 C 71.9727 6.78711 90.8203 -12.0605 90.8203 -35.2051 C 90.8203 -58.3496 71.9727 -77.1973 48.8281 -77.1973 C 25.6836 -77.1973 6.83594 -58.3496 6.83594 -35.2051 C 6.83594 -12.0605 25.6836 6.78711 48.8281 6.78711 Z M 48.8281 -7.37305 C 33.4473 -7.37305 20.9961 -19.8242 20.9961 -35.2051 C 20.9961 -50.5859 33.4473 -63.0371 48.8281 -63.0371 C 64.209 -63.0371 76.6602 -50.5859 76.6602 -35.2051 C 76.6602 -19.8242 64.209 -7.37305 48.8281 -7.37305 Z M 38.5742 -19.7266 C 40.2344 -19.7266 41.5039 -20.2148 42.5781 -21.2891 L 48.8281 -27.4902 L 55.127 -21.2891 C 56.2012 -20.2148 57.4707 -19.7266 59.1309 -19.7266 C 62.1582 -19.7266 64.4531 -22.0215 64.4531 -25.0977 C 64.4531 -26.416 63.8672 -27.7344 62.8418 -28.7598 L 56.4941 -35.1562 L 62.8418 -41.5527 C 63.8672 -42.5781 64.4531 -43.8965 64.4531 -45.2148 C 64.4531 -48.291 62.1582 -50.5859 59.1309 -50.5859 C 57.4707 -50.5859 56.2012 -50.0977 55.127 -49.0234 L 48.8281 -42.7734 L 42.5781 -49.0234 C 41.5039 -50.0977 40.2344 -50.5859 38.5742 -50.5859 C 35.5469 -50.5859 33.252 -48.291 33.252 -45.2148 C 33.252 -43.8965 33.8379 -42.5781 34.8633 -41.5527 L 41.2598 -35.1562 L 34.8633 -28.7598 C 33.8379 -27.7344 33.252 -26.416 33.252 -25.0977 C 33.252 -22.0215 35.5469 -19.7266 38.5742 -19.7266 Z"/>
  </g>
  <g id="Heavy-S" transform="matrix(1 0 0 1 2588.47 696)">
   <path d="M 48.2422 6.15234 C 70.9961 6.15234 89.5996 -12.4512 89.5996 -35.2051 C 89.5996 -57.959 70.9961 -76.6113 48.1934 -76.6113 C 25.4395 -76.6113 6.83594 -57.959 6.83594 -35.2051 C 6.83594 -12.4512 25.4395 6.15234 48.2422 6.15234 Z M 48.2422 -6.39648 C 32.2754 -6.39648 19.4336 -19.2871 19.4336 -35.2051 C 19.4336 -51.1719 32.2754 -64.0137 48.1934 -64.0137 C 64.1602 -64.0137 77.002 -51.1719 77.0508 -35.2051 C 77.0508 -19.2871 64.1602 -6.39648 48.2422 -6.39648 Z M 37.3535 -19.5312 C 38.8184 -19.5312 40.0391 -19.9707 40.9668 -20.9473 L 48.1934 -28.1738 L 55.4688 -20.9473 C 56.4453 -19.9707 57.6172 -19.5312 59.1309 -19.5312 C 61.9141 -19.5312 64.0137 -21.6309 64.0137 -24.4629 C 64.0137 -25.6836 63.4766 -26.9043 62.5488 -27.832 L 55.2246 -35.1562 L 62.5488 -42.5293 C 63.4766 -43.457 64.0137 -44.6777 64.0137 -45.8984 C 64.0137 -48.6816 61.9141 -50.8301 59.1309 -50.8301 C 57.666 -50.8301 56.4941 -50.3906 55.5176 -49.3652 L 48.1934 -42.1387 L 40.9668 -49.3652 C 39.9902 -50.3418 38.8184 -50.7812 37.3535 -50.7812 C 34.5703 -50.7812 32.4707 -48.6816 32.4707 -45.8984 C 32.4707 -44.6777 33.0078 -43.457 33.9355 -42.5293 L 41.2598 -35.1562 L 33.9355 -27.832 C 33.0078 -26.9043 32.4707 -25.6836 32.4707 -24.4629 C 32.4707 -21.6309 34.5703 -19.5312 37.3535 -19.5312 Z"/>
  </g>
  <g id="Bold-S" transform="matrix(1 0 0 1 2292.44 696)">
   <path d="M 47.5586 5.46875 C 69.873 5.46875 88.2324 -12.8906 88.2324 -35.2539 C 88.2324 -57.5684 69.873 -75.9277 47.5098 -75.9277 C 25.1953 -75.9277 6.83594 -57.5684 6.83594 -35.2539 C 6.83594 -12.8906 25.1953 5.46875 47.5586 5.46875 Z M 47.5586 -5.32227 C 30.957 -5.32227 17.6758 -18.6523 17.6758 -35.2539 C 17.6758 -51.8066 30.957 -65.1367 47.5098 -65.1367 C 64.1113 -65.1367 77.4414 -51.8066 77.4414 -35.2539 C 77.4414 -18.6523 64.1113 -5.32227 47.5586 -5.32227 Z M 35.9863 -19.2871 C 37.2559 -19.2871 38.3301 -19.7266 39.209 -20.5566 L 47.5098 -28.9062 L 55.9082 -20.5566 C 56.7383 -19.7266 57.8125 -19.2871 59.1309 -19.2871 C 61.6211 -19.2871 63.5254 -21.2402 63.5254 -23.7305 C 63.5254 -24.8535 63.0371 -25.9277 62.207 -26.7578 L 53.8086 -35.1562 L 62.207 -43.6035 C 63.0859 -44.4824 63.5254 -45.5078 63.5254 -46.6797 C 63.5254 -49.1699 61.6211 -51.0742 59.1309 -51.0742 C 57.8613 -51.0742 56.8359 -50.6836 55.957 -49.8047 L 47.5098 -41.4062 L 39.1602 -49.7559 C 38.2812 -50.6348 37.2559 -51.0254 35.9863 -51.0254 C 33.4961 -51.0254 31.543 -49.1211 31.543 -46.6309 C 31.543 -45.5078 32.0312 -44.4336 32.9102 -43.6035 L 41.3086 -35.1562 L 32.9102 -26.7578 C 32.0312 -25.9277 31.543 -24.8535 31.543 -23.7305 C 31.543 -21.2402 33.4961 -19.2871 35.9863 -19.2871 Z"/>
  </g>
  <g id="Semibold-S" transform="matrix(1 0 0 1 1996.2 696)">
   <path d="M 47.0703 4.98047 C 69.0918 4.98047 87.3047 -13.1836 87.3047 -35.2539 C 87.3047 -57.2754 69.0918 -75.4883 47.0215 -75.4883 C 25 -75.4883 6.83594 -57.2754 6.83594 -35.2539 C 6.83594 -13.1836 25.0488 4.98047 47.0703 4.98047 Z M 47.0703 -4.58984 C 30.0781 -4.58984 16.4551 -18.2129 16.4551 -35.2539 C 16.4551 -52.2461 30.0293 -65.8691 47.0215 -65.8691 C 64.0625 -65.8691 77.6855 -52.2461 77.7344 -35.2539 C 77.7344 -18.2129 64.0625 -4.58984 47.0703 -4.58984 Z M 35.0098 -19.0918 C 36.1816 -19.0918 37.207 -19.5312 37.9883 -20.3125 L 47.0215 -29.3945 L 56.1523 -20.3125 C 56.9336 -19.5312 57.9102 -19.0918 59.1309 -19.0918 C 61.377 -19.0918 63.1836 -20.9473 63.1836 -23.2422 C 63.1836 -24.3164 62.7441 -25.293 61.9629 -26.0742 L 52.832 -35.2051 L 62.0117 -44.3848 C 62.793 -45.166 63.2324 -46.1426 63.2324 -47.168 C 63.2324 -49.4629 61.4258 -51.2695 59.1309 -51.2695 C 58.0078 -51.2695 57.0801 -50.8789 56.25 -50.0488 L 47.0215 -40.918 L 37.8906 -50 C 37.1582 -50.8301 36.1816 -51.2207 35.0098 -51.2207 C 32.7148 -51.2207 30.957 -49.4629 30.957 -47.168 C 30.957 -46.0938 31.3965 -45.1172 32.1777 -44.3359 L 41.3086 -35.2051 L 32.1777 -26.0254 C 31.3965 -25.293 30.957 -24.2676 30.957 -23.2422 C 30.957 -20.9473 32.7148 -19.0918 35.0098 -19.0918 Z"/>
  </g>
  <g id="Medium-S" transform="matrix(1 0 0 1 1699.83 696)">
   <path d="M 46.7285 4.63867 C 68.5547 4.63867 86.6211 -13.4277 86.6211 -35.2539 C 86.6211 -57.0801 68.5059 -75.1465 46.6797 -75.1465 C 24.8535 -75.1465 6.83594 -57.0801 6.83594 -35.2539 C 6.83594 -13.4277 24.9023 4.63867 46.7285 4.63867 Z M 46.7285 -4.00391 C 29.3945 -4.00391 15.5273 -17.9199 15.5273 -35.2539 C 15.5273 -52.5879 29.3457 -66.4551 46.6797 -66.4551 C 64.0137 -66.4551 77.8809 -52.5879 77.9297 -35.2539 C 77.9785 -17.9199 64.0625 -4.00391 46.7285 -4.00391 Z M 34.2773 -18.9941 C 35.3516 -18.9941 36.3281 -19.3848 37.0117 -20.1172 L 46.6797 -29.7852 L 56.3965 -20.1172 C 57.0801 -19.4336 58.0078 -18.9941 59.1309 -18.9941 C 61.2305 -18.9941 62.9395 -20.7031 62.9395 -22.8516 C 62.9395 -23.877 62.5 -24.8047 61.7676 -25.4883 L 52.0996 -35.2051 L 61.8164 -44.9707 C 62.5977 -45.7031 62.9883 -46.582 62.9883 -47.5586 C 62.9883 -49.707 61.2793 -51.416 59.1309 -51.416 C 58.1055 -51.416 57.2754 -51.0254 56.4941 -50.2441 L 46.6797 -40.5273 L 36.9629 -50.2441 C 36.2305 -50.9766 35.3516 -51.3184 34.2773 -51.3184 C 32.1777 -51.3184 30.4688 -49.6582 30.4688 -47.5586 C 30.4688 -46.5332 30.9082 -45.6055 31.6406 -44.9219 L 41.3086 -35.2051 L 31.6406 -25.4883 C 30.9082 -24.8047 30.4688 -23.8281 30.4688 -22.8516 C 30.4688 -20.7031 32.1777 -18.9941 34.2773 -18.9941 Z"/>
  </g>
  <g id="Regular-S" transform="matrix(1 0 0 1 1403.58 696)">
   <path d="M 46.2402 4.15039 C 67.7734 4.15039 85.6934 -13.7207 85.6934 -35.2539 C 85.6934 -56.7871 67.7246 -74.6582 46.1914 -74.6582 C 24.707 -74.6582 6.83594 -56.7871 6.83594 -35.2539 C 6.83594 -13.7207 24.7559 4.15039 46.2402 4.15039 Z M 46.2402 -3.27148 C 28.5156 -3.27148 14.3555 -17.4805 14.3555 -35.2539 C 14.3555 -53.0273 28.4668 -67.2363 46.1914 -67.2363 C 63.9648 -67.2363 78.1738 -53.0273 78.2227 -35.2539 C 78.2715 -17.4805 64.0137 -3.27148 46.2402 -3.27148 Z M 33.3496 -18.7988 C 34.3262 -18.7988 35.2051 -19.1895 35.791 -19.873 L 46.1914 -30.3223 L 56.6406 -19.873 C 57.2754 -19.2383 58.1055 -18.7988 59.1309 -18.7988 C 61.0352 -18.7988 62.5977 -20.4102 62.5977 -22.3633 C 62.5977 -23.3398 62.207 -24.1211 61.5723 -24.8047 L 51.1719 -35.2051 L 61.6211 -45.7031 C 62.3047 -46.3867 62.6465 -47.168 62.6465 -48.0957 C 62.6465 -50.0488 61.084 -51.5625 59.1797 -51.5625 C 58.252 -51.5625 57.5195 -51.2695 56.7871 -50.5371 L 46.1914 -40.0391 L 35.7422 -50.4883 C 35.1074 -51.1719 34.3262 -51.4648 33.3496 -51.4648 C 31.4453 -51.4648 29.8828 -50 29.8828 -48.0469 C 29.8828 -47.1191 30.2734 -46.2891 30.9082 -45.6543 L 41.3086 -35.2051 L 30.9082 -24.7559 C 30.2734 -24.1211 29.8828 -23.291 29.8828 -22.3633 C 29.8828 -20.4102 31.4453 -18.7988 33.3496 -18.7988 Z"/>
  </g>
  <g id="Light-S" transform="matrix(1 0 0 1 1107.6 696)">
   <path d="M 45.5078 3.41797 C 66.6992 3.41797 84.2285 -14.0625 84.2285 -35.2539 C 84.2285 -56.4453 66.6504 -73.9258 45.5078 -73.9258 C 24.3164 -73.9258 6.83594 -56.4453 6.83594 -35.2539 C 6.83594 -14.0625 24.3652 3.41797 45.5078 3.41797 Z M 45.5078 -2.29492 C 27.2461 -2.29492 12.5977 -16.9922 12.5977 -35.2539 C 12.5977 -53.5156 27.1973 -68.2129 45.5078 -68.2129 C 63.7695 -68.2129 78.4668 -53.5156 78.5156 -35.2539 C 78.5156 -16.9922 63.8184 -2.29492 45.5078 -2.29492 Z M 32.3242 -19.2383 C 33.0566 -19.2383 33.7402 -19.5312 34.2773 -20.0684 L 45.5078 -31.3477 L 56.7383 -20.0684 C 57.2754 -19.5312 57.9102 -19.2383 58.6914 -19.2383 C 60.2539 -19.2383 61.4258 -20.459 61.4258 -21.9727 C 61.4258 -22.7539 61.1816 -23.3887 60.5957 -23.9258 L 49.3652 -35.1562 L 60.6445 -46.4844 C 61.2305 -47.0703 61.4746 -47.6562 61.4746 -48.3887 C 61.4746 -49.9023 60.2539 -51.123 58.7402 -51.123 C 58.0078 -51.123 57.4219 -50.8301 56.8359 -50.2441 L 45.5078 -38.9648 L 34.2285 -50.2441 C 33.6914 -50.7812 33.0566 -51.0254 32.3242 -51.0254 C 30.7617 -51.0254 29.5898 -49.9023 29.5898 -48.3887 C 29.5898 -47.6074 29.834 -46.9727 30.4199 -46.4355 L 41.6504 -35.1562 L 30.4199 -23.877 C 29.834 -23.3887 29.5898 -22.7051 29.5898 -21.9727 C 29.5898 -20.459 30.7617 -19.2383 32.3242 -19.2383 Z"/>
  </g>
  <g id="Thin-S" transform="matrix(1 0 0 1 811.867 696)">
   <path d="M 44.5801 2.49023 C 65.2832 2.49023 82.2754 -14.5508 82.2754 -35.2539 C 82.2754 -55.957 65.2344 -72.998 44.5312 -72.998 C 23.8281 -72.998 6.83594 -55.957 6.83594 -35.2539 C 6.83594 -14.5508 23.877 2.49023 44.5801 2.49023 Z M 44.5801 -0.927734 C 25.5859 -0.927734 10.2539 -16.3086 10.2539 -35.2539 C 10.2539 -54.1992 25.5859 -69.5801 44.5312 -69.5801 C 63.5254 -69.5801 78.8574 -54.1992 78.8574 -35.2539 C 78.8574 -16.3086 63.5254 -0.927734 44.5801 -0.927734 Z M 30.9082 -19.7754 C 31.4453 -19.7754 31.8359 -19.9219 32.2266 -20.3613 L 44.5312 -32.666 L 56.8359 -20.3613 C 57.2754 -19.9707 57.666 -19.7754 58.2031 -19.7754 C 59.1797 -19.7754 59.9609 -20.5078 59.9609 -21.4844 C 59.9609 -21.9727 59.7656 -22.3633 59.375 -22.7539 L 47.0215 -35.1562 L 59.375 -47.5098 C 59.8145 -47.9492 59.9609 -48.291 59.9609 -48.8281 C 59.9609 -49.7559 59.1797 -50.4883 58.2031 -50.4883 C 57.7148 -50.4883 57.3242 -50.3418 56.8848 -49.9023 L 44.5312 -37.5488 L 32.2266 -49.9023 C 31.7871 -50.293 31.4453 -50.4883 30.9082 -50.4883 C 29.9316 -50.4883 29.1504 -49.7559 29.1504 -48.7793 C 29.1504 -48.291 29.3457 -47.9004 29.7363 -47.5098 L 42.0898 -35.1562 L 29.7363 -22.7539 C 29.3457 -22.3633 29.1504 -21.9727 29.1504 -21.4844 C 29.1504 -20.5078 29.9316 -19.7754 30.9082 -19.7754 Z"/>
  </g>
  <g id="Ultralight-S" transform="matrix(1 0 0 1 515.644 696)">
   <path d="M 44.043 1.95312 C 64.502 1.95312 81.2988 -14.7949 81.2988 -35.2539 C 81.2988 -55.7129 64.502 -72.4609 44.043 -72.4609 C 23.584 -72.4609 6.83594 -55.7129 6.83594 -35.2539 C 6.83594 -14.7949 23.584 1.95312 44.043 1.95312 Z M 44.043 -0.244141 C 24.7559 -0.244141 9.08203 -15.9668 9.08203 -35.2539 C 9.08203 -54.541 24.7559 -70.2637 44.043 -70.2637 C 63.3789 -70.2637 79.0527 -54.541 79.0527 -35.2539 C 79.0527 -15.9668 63.3789 -0.244141 44.043 -0.244141 Z M 30.1758 -20.0684 C 30.6152 -20.0684 30.8594 -20.166 31.2012 -20.5078 L 44.043 -33.3984 L 56.9336 -20.5078 C 57.2754 -20.166 57.5684 -20.0684 57.9102 -20.0684 C 58.6426 -20.0684 59.1797 -20.5566 59.1797 -21.1914 C 59.1797 -21.582 59.0332 -21.8262 58.7402 -22.168 L 45.8008 -35.1074 L 58.7402 -48.0469 C 59.0332 -48.3887 59.1797 -48.6328 59.1797 -49.0234 C 59.1797 -49.6582 58.6426 -50.1465 57.9102 -50.1465 C 57.5684 -50.1465 57.2754 -50.0488 56.9336 -49.707 L 44.043 -36.8164 L 31.2012 -49.707 C 30.8594 -50.0488 30.6152 -50.1465 30.1758 -50.1465 C 29.4922 -50.1465 28.9551 -49.6582 28.9551 -49.0234 C 28.9551 -48.6328 29.0527 -48.3887 29.3945 -48.0469 L 42.334 -35.1074 L 29.3945 -22.168 C 29.0527 -21.8262 28.9551 -21.582 28.9551 -21.1914 C 28.9551 -20.5566 29.4922 -20.0684 30.1758 -20.0684 Z"/>
  </g>
 </g>
</svg>
